<svg width="93" height="93" viewBox="0 0 93 93" fill="none" xmlns="http://www.w3.org/2000/svg">
<g filter="url(#filter0_f_17662_290915)">
<ellipse cx="46.2725" cy="84.2695" rx="8" ry="3" fill="#B3B2B0"/>
</g>
<rect x="44.2725" y="68.2734" width="4" height="16" rx="2" fill="#CA0013"/>
<path d="M70.2725 46.2695C70.2725 59.5244 59.5273 70.2695 46.2725 70.2695C33.0176 70.2695 22.2725 59.5244 22.2725 46.2695C22.2725 33.0147 33.0176 22.2695 46.2725 22.2695C59.5273 22.2695 70.2725 33.0147 70.2725 46.2695Z" fill="white"/>
<g filter="url(#filter1_d_17662_290915)">
<circle cx="46.2738" cy="46.2748" r="24.0014" fill="white"/>
</g>
<mask id="mask0_17662_290915" style="mask-type:alpha" maskUnits="userSpaceOnUse" x="22" y="22" width="49" height="49">
<circle cx="46.2738" cy="46.2748" r="24.0014" fill="#D9D9D9"/>
</mask>
<g mask="url(#mask0_17662_290915)">
<path d="M57.8801 52.3905L53.2181 46.1792C57.0251 44.6943 59.2328 42.9975 59.6391 40.6949C60.2589 37.1802 56.8845 35.6953 53.6426 35.6953H35.7684L35.1325 39.3011H35.7993C37.1631 39.3011 38.1773 40.4221 37.9579 41.6647L36.323 50.9365C36.1039 52.1787 34.6944 53.3001 33.3307 53.3001H32.6642L32.0283 56.9059H46.212L46.848 53.3001H46.0544C44.6907 53.3001 43.6464 52.1791 43.8654 50.9365L44.2556 48.7246L45.7134 48.3611L49.3624 53.2696C51.0524 55.5421 53.8727 56.9055 56.8417 56.9055C57.5992 56.9055 58.3622 56.8749 59.1108 56.7538L59.72 53.2997C59.0227 53.2997 58.3186 52.9968 57.8801 52.3905ZM44.581 46.8761L45.4325 41.8769C45.7799 39.9073 47.7186 38.877 49.3548 38.877C50.7486 38.877 51.9179 39.6345 51.64 41.2101C51.2019 43.6949 46.5539 45.9975 44.581 46.8761ZM58.6511 55.0918C58.3063 55.1151 57.9258 55.1261 57.4886 55.1261C56.2244 55.1261 54.9611 54.8371 53.8341 54.2902C52.7157 53.7475 51.7523 52.9595 51.0477 52.0122L47.3987 47.1032L47.2284 46.874C48.1274 46.4211 49.1294 45.8636 50.0614 45.2294C52.1607 43.8004 53.3058 42.4002 53.5617 40.9491C53.7892 39.6591 53.3444 38.8012 52.9313 38.3089C52.2759 37.5276 51.2358 37.0976 50.0025 37.0976C48.8811 37.0976 47.7525 37.4488 46.8251 38.0865C45.7418 38.8308 45.025 39.9247 44.8059 41.1665L44.8055 41.1703L44.8051 41.1741L43.9535 46.1737L43.7802 47.1854L43.7739 47.1871L43.6281 48.0145L43.238 50.2264C43.0736 51.1576 42.9304 52.1105 43.6447 52.8747C44.3204 53.7242 45.2969 53.9449 46.1659 54.0703L45.9795 55.1265H34.2174L34.4012 54.0851C36.2327 53.8831 37.9397 52.4041 38.2447 50.6759L39.8796 41.4041C40.0452 40.464 39.7851 39.5015 39.1657 38.763C38.6861 38.1915 38.0333 37.7962 37.3042 37.6221L37.5012 36.5041H54.29C56.1723 36.5041 57.8106 37.0625 58.5647 37.9615C59.0121 38.4944 59.1583 39.1562 59.0121 39.9849C58.7134 41.6795 56.9285 43.1102 53.3952 44.4884L51.8073 45.1074L52.8305 46.4703L57.4861 52.6735C57.8441 53.1645 58.4677 53.4916 58.9142 53.6089L58.6511 55.0918Z" fill="#151515"/>
<path d="M41.556 41.4581C41.101 44.0394 40.3108 48.5307 40.0287 50.1194C39.7673 51.592 39.4042 52.7681 38.2769 53.7887H42.4131C42.4131 53.7887 41.1022 52.7935 41.6166 49.8766C42.1453 46.878 42.9337 42.3291 43.2138 40.8192C43.5934 38.7729 44.7652 37.8828 44.7652 37.8828H40.6832C40.6832 37.8828 42.0135 38.8632 41.556 41.4581Z" fill="#151515"/>
<path d="M54.2104 42.6949C56.0347 41.9217 57.4209 40.7189 57.4209 39.6517C57.4209 39.0374 56.7905 37.7812 54.4405 37.7812C56.283 40.358 54.2104 42.6949 54.2104 42.6949Z" fill="#151515"/>
<path d="M49.5337 47.114C49.5337 47.114 51.3359 49.5708 52.5633 51.2298C54.1855 53.4227 56.3686 53.6595 56.3686 53.6595L50.7657 46.3438L49.5337 47.114Z" fill="#151515"/>
<path d="M22.2725 3.17969V89.5482H41.1639L27.9252 46.3899L41.1826 3.17969H22.2725Z" fill="#CC3132"/>
<path d="M51.3651 3.17969L64.75 46.3899L51.3841 89.5482H70.4571V3.17969H51.3651Z" fill="#CC3132"/>
</g>
<defs>
<filter id="filter0_f_17662_290915" x="34.9997" y="77.9968" width="22.5455" height="12.5455" filterUnits="userSpaceOnUse" color-interpolation-filters="sRGB">
<feFlood flood-opacity="0" result="BackgroundImageFix"/>
<feBlend mode="normal" in="SourceGraphic" in2="BackgroundImageFix" result="shape"/>
<feGaussianBlur stdDeviation="1.63636" result="effect1_foregroundBlur_17662_290915"/>
</filter>
<filter id="filter1_d_17662_290915" x="0.181552" y="0.182529" width="92.1845" height="92.1847" filterUnits="userSpaceOnUse" color-interpolation-filters="sRGB">
<feFlood flood-opacity="0" result="BackgroundImageFix"/>
<feColorMatrix in="SourceAlpha" type="matrix" values="0 0 0 0 0 0 0 0 0 0 0 0 0 0 0 0 0 0 127 0" result="hardAlpha"/>
<feMorphology radius="2.45455" operator="erode" in="SourceAlpha" result="effect1_dropShadow_17662_290915"/>
<feOffset/>
<feGaussianBlur stdDeviation="12.2727"/>
<feComposite in2="hardAlpha" operator="out"/>
<feColorMatrix type="matrix" values="0 0 0 0 0 0 0 0 0 0 0 0 0 0 0 0 0 0 0.2 0"/>
<feBlend mode="normal" in2="BackgroundImageFix" result="effect1_dropShadow_17662_290915"/>
<feBlend mode="normal" in="SourceGraphic" in2="effect1_dropShadow_17662_290915" result="shape"/>
</filter>
</defs>
</svg>
